<svg width="31" height="31" viewBox="0 0 31 31" fill="none" xmlns="http://www.w3.org/2000/svg">
<g clip-path="url(#clip0_113_117)">
<path d="M22.9631 0.156032L7.02952 0.509706C3.14722 0.59588 0.0738757 3.81287 0.165006 7.69505L0.53902 23.6282C0.63015 27.5103 3.85125 30.5876 7.73354 30.5014L23.6671 30.1478C27.5494 30.0616 30.6228 26.8446 30.5316 22.9624L30.1576 7.02931C30.0665 3.14713 26.8454 0.069858 22.9631 0.156032Z" fill="#0277BD"/>
<path d="M6.57984 12.5521L7.00299 16.2868L15.3776 16.1009L15.2898 12.3587L6.57984 12.5521ZM15.1118 4.78454L5.72803 4.99283L6.1561 8.72745L15.1997 8.52671L15.1118 4.78454ZM15.6092 25.971L15.5178 22.0776L15.5015 22.0823L11.3073 21.0495L10.9708 18.0708L7.2141 18.1542L7.87631 24.0183L15.5921 25.9762L15.6092 25.971Z" fill="#EBEBEB"/>
<path d="M19.973 15.9989L19.6525 20.8618L15.5051 22.081L15.5965 25.9742L23.2185 23.6778L23.2599 23.0443L23.908 13.1729L23.9757 12.1659L24.4736 4.57674L15.0991 4.78482L15.187 8.52699L20.4602 8.40994L20.2096 12.2495L15.2769 12.359L15.3648 16.1012L19.973 15.9989Z" fill="white"/>
</g>
<defs>
<clipPath id="clip0_113_117">
<rect width="30" height="30" fill="white" transform="matrix(0.999754 -0.0221913 0.0234675 0.999725 0 0.665738)"/>
</clipPath>
</defs>
</svg>
