<svg width="30" height="30" viewBox="0 0 30 30" fill="none" xmlns="http://www.w3.org/2000/svg">
<g clip-path="url(#clip0_113_171)">
<path d="M29.7401 13.5135C29.658 13.4593 28.9742 12.9314 27.4971 12.9314C27.1142 12.9314 26.7312 12.972 26.3483 13.0397C26.0611 11.1445 24.4609 10.1834 24.3926 10.1428L23.9959 9.91267L23.7498 10.2782C23.4215 10.7655 23.1617 11.3205 23.0523 11.889C22.7787 12.972 22.9429 14.0008 23.5036 14.8807C22.8334 15.2597 21.7393 15.3545 21.5068 15.3545H3.49491C3.02991 15.3545 2.64697 15.7335 2.64697 16.2073C2.64697 17.764 2.89315 19.3207 3.44021 20.7827C4.05565 22.3936 4.98565 23.5848 6.1755 24.3158C7.5158 25.128 9.71771 25.5883 12.2205 25.5883C13.3009 25.5883 14.4224 25.4935 15.5302 25.2905C17.062 25.0197 18.539 24.4918 19.893 23.7202C21.0143 23.0855 22.018 22.2661 22.8608 21.2971C24.2968 19.7133 25.1448 17.9129 25.7602 16.3562H26.0201C27.5792 16.3562 28.5502 15.7335 29.0836 15.2056C29.4392 14.8807 29.699 14.4881 29.8905 14.0279L29.9999 13.703L29.7401 13.5135ZM5.17712 14.8536H7.58418C7.69359 14.8536 7.803 14.7588 7.803 14.637V12.4982C7.803 12.3899 7.70727 12.2816 7.58418 12.2816H5.17712C5.05403 12.2816 4.9583 12.3764 4.9583 12.4982V14.637C4.97197 14.7588 5.05403 14.8536 5.17712 14.8536ZM8.5005 14.8536H10.9076C11.017 14.8536 11.1264 14.7588 11.1264 14.637V12.4982C11.1264 12.3899 11.0306 12.2816 10.9076 12.2816H8.5005C8.37741 12.2816 8.28168 12.3764 8.28168 12.4982V14.637C8.29535 14.7588 8.37741 14.8536 8.5005 14.8536ZM11.8786 14.8536H14.272C14.4087 14.8536 14.5045 14.7588 14.5045 14.637V12.4982C14.5045 12.3899 14.4224 12.2816 14.272 12.2816H11.8786C11.7692 12.2816 11.6734 12.3764 11.6734 12.4982V14.637C11.6734 14.7588 11.7555 14.8536 11.8786 14.8536ZM15.2156 14.8536H17.6364C17.7458 14.8536 17.8415 14.7588 17.8415 14.637V12.4982C17.8415 12.3899 17.7595 12.2816 17.6364 12.2816H15.2156C15.1062 12.2816 15.0105 12.3764 15.0105 12.4982V14.637C15.0105 14.7588 15.1062 14.8536 15.2156 14.8536ZM8.5005 11.8214H10.9076C11.017 11.8214 11.1264 11.6995 11.1264 11.5777V9.45242C11.1264 9.33059 11.0306 9.23583 10.9076 9.23583H8.5005C8.37741 9.23583 8.28168 9.31705 8.28168 9.45242V11.5777C8.29535 11.6995 8.37741 11.8214 8.5005 11.8214ZM11.8786 11.8214H14.272C14.4087 11.8214 14.5045 11.6995 14.5045 11.5777V9.45242C14.5045 9.33059 14.4224 9.23583 14.272 9.23583H11.8786C11.7692 9.23583 11.6734 9.31705 11.6734 9.45242V11.5777C11.6734 11.6995 11.7555 11.8214 11.8786 11.8214ZM15.2156 11.8214H17.6364C17.7458 11.8214 17.8415 11.6995 17.8415 11.5777V9.45242C17.8415 9.33059 17.7458 9.23583 17.6364 9.23583H15.2156C15.1062 9.23583 15.0105 9.31705 15.0105 9.45242V11.5777C15.0105 11.6995 15.1062 11.8214 15.2156 11.8214ZM15.2156 8.73497H17.6364C17.7458 8.73497 17.8415 8.64021 17.8415 8.51838V6.40664C17.8415 6.27127 17.7458 6.17651 17.6364 6.17651H15.2156C15.1062 6.17651 15.0105 6.25773 15.0105 6.40664V8.51838C15.0105 8.62667 15.1062 8.73497 15.2156 8.73497ZM18.5801 14.8536H20.9871C21.1102 14.8536 21.2059 14.7588 21.2059 14.637V12.4982C21.2059 12.3899 21.1102 12.2816 20.9871 12.2816H18.5801C18.4706 12.2816 18.3749 12.3764 18.3749 12.4982V14.637C18.3749 14.7588 18.4706 14.8536 18.5801 14.8536Z" fill="#0288D1"/>
</g>
<defs>
<clipPath id="clip0_113_171">
<rect width="30" height="30" fill="white"/>
</clipPath>
</defs>
</svg>
