<svg width="30" height="30" viewBox="0 0 30 30" fill="none" xmlns="http://www.w3.org/2000/svg">
<g clip-path="url(#clip0_113_147)">
<path d="M22.9688 0H7.03125C3.148 0 0 3.148 0 7.03125V22.9688C0 26.852 3.148 30 7.03125 30H22.9688C26.852 30 30 26.852 30 22.9688V7.03125C30 3.148 26.852 0 22.9688 0Z" fill="#F03C2E"/>
<mask id="mask0_113_147" style="mask-type:luminance" maskUnits="userSpaceOnUse" x="3" y="3" width="24" height="24">
<path d="M3.28125 3.28125H26.7188V26.7188H3.28125V3.28125Z" fill="white"/>
</mask>
<g mask="url(#mask0_113_147)">
<path d="M26.2762 13.9564L16.0435 3.7237C15.8325 3.51249 15.5636 3.36864 15.2708 3.31038C14.978 3.25211 14.6745 3.28205 14.3987 3.39639C14.2157 3.47236 14.0494 3.58357 13.9092 3.7237L11.7852 5.84772L14.4805 8.54303C15.1075 8.32331 15.8253 8.47342 16.3247 8.97299C16.5625 9.21118 16.7285 9.51146 16.8038 9.83951C16.879 10.1676 16.8605 10.5102 16.7502 10.8282L19.3482 13.4261C19.9766 13.2093 20.7017 13.3491 21.2034 13.8523C21.4547 14.1035 21.6258 14.4236 21.6951 14.7721C21.7644 15.1206 21.7287 15.4819 21.5925 15.8101C21.41 16.2501 21.0603 16.5997 20.6201 16.7819C20.18 16.9641 19.6855 16.9641 19.2454 16.7819C19.0274 16.6915 18.8294 16.5592 18.6626 16.3924C18.1353 15.865 18.005 15.0887 18.2716 14.439L15.8487 12.0161V18.3919C16.0246 18.4789 16.1853 18.5937 16.3247 18.7318C16.6615 19.0686 16.8508 19.5255 16.8508 20.0018C16.8508 20.4782 16.6615 20.935 16.3247 21.2718C15.9879 21.6087 15.531 21.7979 15.0547 21.7979C14.5783 21.7979 14.1215 21.6087 13.7847 21.2718C13.5333 21.0207 13.3621 20.7007 13.2927 20.3522C13.2233 20.0038 13.2589 19.6426 13.3949 19.3143C13.4852 19.0964 13.6177 18.8984 13.7847 18.7318C13.9582 18.5589 14.1509 18.4278 14.3728 18.3399V11.9048C14.1526 11.8148 13.9526 11.6816 13.7847 11.513C13.5325 11.2611 13.361 10.9398 13.2922 10.5901C13.2233 10.2404 13.2601 9.87804 13.398 9.54932L10.7393 6.89233L3.72273 13.9015C3.5115 14.1126 3.36763 14.3816 3.30932 14.6745C3.25102 14.9674 3.2809 15.271 3.39519 15.5469C3.47119 15.73 3.58248 15.8964 3.72273 16.0366L13.9561 26.2685C14.0963 26.4086 14.2626 26.5198 14.4456 26.5958C14.8155 26.7487 15.231 26.7487 15.6009 26.5958C15.7839 26.5198 15.9502 26.4086 16.0903 26.2685L26.2762 16.0988C26.4164 15.9587 26.5277 15.7923 26.6036 15.6091C26.6795 15.4259 26.7186 15.2296 26.7187 15.0314C26.7186 14.8331 26.6796 14.6367 26.6036 14.4535C26.5277 14.2704 26.4164 14.1039 26.2762 13.9638" fill="white"/>
</g>
</g>
<defs>
<clipPath id="clip0_113_147">
<rect width="30" height="30" fill="white"/>
</clipPath>
</defs>
</svg>
