<svg width="30" height="30" viewBox="0 0 30 30" fill="none" xmlns="http://www.w3.org/2000/svg">
<g clip-path="url(#clip0_269_427)">
<path d="M22.9688 0H7.03125C3.148 0 0 3.148 0 7.03125V22.9688C0 26.852 3.148 30 7.03125 30H22.9688C26.852 30 30 26.852 30 22.9688V7.03125C30 3.148 26.852 0 22.9688 0Z" fill="#F0DB4F"/>
<path d="M7.8883 25.0702L10.184 23.6808C10.627 24.4661 11.0299 25.1305 11.9963 25.1305C12.9227 25.1305 13.5067 24.7682 13.5067 23.3586V13.7729H16.326V23.3985C16.326 26.3185 14.6144 27.6476 12.1171 27.6476C9.86186 27.6476 8.55275 26.4796 7.88818 25.0699M17.8573 24.7681L20.1528 23.439C20.7571 24.4259 21.5425 25.1508 22.9319 25.1508C24.1001 25.1508 24.845 24.5667 24.845 23.7612C24.845 22.7946 24.0797 22.4522 22.7909 21.8885L22.0863 21.5863C20.0522 20.7205 18.7029 19.633 18.7029 17.3373C18.7029 15.2228 20.314 13.6117 22.8313 13.6117C24.6236 13.6117 25.9124 14.2361 26.8387 15.8672L24.6437 17.2769C24.1603 16.411 23.6369 16.0686 22.8313 16.0686C22.0056 16.0686 21.482 16.5922 21.482 17.2769C21.482 18.1226 22.0056 18.465 23.2138 18.9887L23.9186 19.2907C26.315 20.3179 27.6643 21.3648 27.6643 23.7209C27.6643 26.2585 25.6707 27.6478 22.9924 27.6478C20.3745 27.6478 18.6829 26.3993 17.8573 24.7681Z" fill="#323330"/>
</g>
<defs>
<clipPath id="clip0_269_427">
<rect width="30" height="30" fill="white"/>
</clipPath>
</defs>
</svg>
