<svg width="30" height="30" viewBox="0 0 30 30" fill="none" xmlns="http://www.w3.org/2000/svg">
<g clip-path="url(#clip0_113_129)">
<path d="M22.9688 0H7.03125C3.148 0 0 3.148 0 7.03125V22.9688C0 26.852 3.148 30 7.03125 30H22.9688C26.852 30 30 26.852 30 22.9688V7.03125C30 3.148 26.852 0 22.9688 0Z" fill="#A9CBD4"/>
<mask id="mask0_113_129" style="mask-type:luminance" maskUnits="userSpaceOnUse" x="7" y="3" width="16" height="24">
<path d="M7.73438 3.28125H22.1531V26.7188H7.73438V3.28125Z" fill="white"/>
</mask>
<g mask="url(#mask0_113_129)">
<path d="M19.1013 16.2512C18.1896 16.2512 17.3723 16.6552 16.8127 17.291L15.3785 16.2757C15.5307 15.8567 15.6182 15.4065 15.6182 14.9355C15.6182 14.4726 15.5338 14.0299 15.3866 13.6171L16.8175 12.6126C17.3771 13.2451 18.1923 13.6469 19.1013 13.6469C20.7839 13.6469 22.1531 12.278 22.1531 10.5951C22.1531 8.91225 20.7839 7.54327 19.1013 7.54327C17.4188 7.54327 16.0495 8.91213 16.0495 10.5949C16.0495 10.8961 16.095 11.1866 16.1767 11.4617L14.7448 12.4668C14.1345 11.7086 13.265 11.2033 12.3041 11.0485V9.32276C13.6864 9.03249 14.7281 7.80424 14.7281 6.33659C14.7281 4.65377 13.3589 3.28479 11.6762 3.28479C9.99352 3.28479 8.62453 4.65354 8.62453 6.33659C8.62453 7.78456 9.63914 8.99768 10.9939 9.3087V11.0569C9.14496 11.3815 7.73438 12.9949 7.73438 14.9355C7.73438 16.8855 9.15891 18.5049 11.0211 18.8183V20.6643C9.6525 20.9651 8.62441 22.1856 8.62441 23.6434C8.62441 25.3264 9.99363 26.6953 11.6763 26.6953C13.359 26.6953 14.7281 25.3264 14.7281 23.6434C14.7281 22.1856 13.7 20.9651 12.3314 20.6643V18.8183C13.274 18.6596 14.1267 18.1636 14.7308 17.4229L16.1746 18.4448C16.0922 18.7235 16.0501 19.0125 16.0495 19.3032C16.0495 20.986 17.4186 22.3549 19.1013 22.3549C20.7839 22.3549 22.1531 20.986 22.1531 19.3032C22.1531 17.6203 20.7839 16.2512 19.1013 16.2512ZM19.1013 9.11545C19.9173 9.11545 20.5809 9.77932 20.5809 10.5951C20.5809 11.4108 19.9173 12.0747 19.1013 12.0747C18.2854 12.0747 17.6217 11.4108 17.6217 10.5951C17.6217 9.77932 18.2854 9.11545 19.1013 9.11545ZM10.1966 6.33659C10.1966 5.52096 10.8604 4.85698 11.6763 4.85698C12.4922 4.85698 13.1559 5.52084 13.1559 6.33659C13.1559 7.15233 12.4922 7.8162 11.6763 7.8162C10.8604 7.8162 10.1966 7.15233 10.1966 6.33659ZM13.1559 23.6434C13.1559 24.4592 12.4922 25.123 11.6763 25.123C10.8604 25.123 10.1966 24.4592 10.1966 23.6434C10.1966 22.8277 10.8604 22.1638 11.6763 22.1638C12.4922 22.1638 13.1559 22.8278 13.1559 23.6434ZM11.6762 16.999C10.5382 16.999 9.61231 16.0735 9.61231 14.9355C9.61231 13.7974 10.5381 12.8717 11.6761 12.8717C12.8141 12.8717 13.7399 13.7974 13.7399 14.9355C13.7399 16.0735 12.8141 16.999 11.6762 16.999ZM19.1013 20.7828C18.2854 20.7828 17.6217 20.1188 17.6217 19.3032C17.6217 18.4874 18.2854 17.8235 19.1013 17.8235C19.9173 17.8235 20.5809 18.4874 20.5809 19.3032C20.5809 20.1189 19.9173 20.7828 19.1013 20.7828Z" fill="black"/>
</g>
</g>
<defs>
<clipPath id="clip0_113_129">
<rect width="30" height="30" fill="white"/>
</clipPath>
</defs>
</svg>
