<svg width="30" height="30" viewBox="0 0 30 30" fill="none" xmlns="http://www.w3.org/2000/svg">
<path d="M22.9688 0H7.03125C3.148 0 0 3.148 0 7.03125V22.9688C0 26.852 3.148 30 7.03125 30H22.9688C26.852 30 30 26.852 30 22.9688V7.03125C30 3.148 26.852 0 22.9688 0Z" fill="#242938"/>
<path d="M14.2324 3.28755C14.182 3.29212 14.0216 3.30818 13.8772 3.31955C10.5484 3.61966 7.43027 5.41591 5.45531 8.17662C4.35574 9.71166 3.65227 11.4528 3.3866 13.2972C3.29273 13.9411 3.28125 14.1313 3.28125 15.0041C3.28125 15.877 3.29273 16.0672 3.38672 16.7109C4.02352 21.112 7.15547 24.8099 11.403 26.1799C12.1637 26.4251 12.9655 26.5923 13.8773 26.6931C14.2325 26.732 15.7675 26.732 16.1227 26.6931C17.6966 26.5189 19.03 26.1295 20.345 25.4581C20.5466 25.3551 20.5856 25.3276 20.5581 25.3047C20.5398 25.2909 19.6806 24.1385 18.6497 22.7456L16.7756 20.214L14.4272 16.7385C13.1351 14.8277 12.0721 13.2651 12.0628 13.2651C12.0537 13.2629 12.0445 14.8071 12.04 16.6926C12.033 19.994 12.0308 20.1269 11.9896 20.2047C11.93 20.317 11.8842 20.3628 11.7879 20.4133C11.7146 20.4499 11.6504 20.4568 11.3045 20.4568H10.9082L10.8027 20.3904C10.7374 20.3495 10.6844 20.2917 10.6492 20.2231L10.6011 20.12L10.6058 15.5265L10.6126 10.9306L10.6836 10.8412C10.7203 10.7932 10.7982 10.7313 10.8532 10.7015C10.9471 10.6557 10.9837 10.6511 11.3801 10.6511C11.8475 10.6511 11.9254 10.6694 12.0469 10.8023C12.0812 10.839 13.3527 12.7543 14.874 15.0614C16.4142 17.3966 17.9553 19.7311 19.4973 22.0651L21.3531 24.8763L21.4471 24.8144C22.2786 24.2737 23.1585 23.5039 23.8549 22.702C25.3372 20.9997 26.2927 18.9241 26.6134 16.7109C26.7073 16.0672 26.7188 15.877 26.7188 15.0041C26.7188 14.1311 26.7073 13.9411 26.6134 13.2972C25.9765 8.89615 22.8445 5.19841 18.597 3.82837C17.8478 3.58544 17.0505 3.41822 16.157 3.31744C15.937 3.29447 14.4226 3.26939 14.2325 3.28767M19.03 10.3762C19.1399 10.4312 19.2293 10.5365 19.2614 10.6465C19.2797 10.7061 19.2843 11.9799 19.2797 14.8506L19.2728 18.9699L18.5466 17.8564L17.818 16.743V13.7486C17.818 11.8127 17.8271 10.7244 17.8409 10.6717C17.8775 10.5435 17.9577 10.4427 18.0677 10.383C18.1616 10.335 18.1961 10.3303 18.5557 10.3303C18.8948 10.3303 18.9544 10.335 19.03 10.3762Z" fill="white"/>
</svg>
