<svg width="30" height="30" viewBox="0 0 30 30" fill="none" xmlns="http://www.w3.org/2000/svg">
<g clip-path="url(#clip0_113_99)">
<path d="M29.8836 17.9643C29.7037 17.436 29.2325 17.068 28.6231 16.9797C28.3358 16.9381 28.0067 16.9559 27.6173 17.0337C26.9385 17.1695 26.435 17.2212 26.0675 17.2312C27.4546 14.9602 28.5826 12.3704 29.2319 9.93258C30.2819 5.99065 29.7208 4.19485 29.0651 3.38258C27.33 1.23258 24.7983 0.0775784 21.7442 0.0422375C20.115 0.0229193 18.6847 0.334851 17.9385 0.559169C17.2439 0.440306 16.4969 0.373942 15.7132 0.361669C14.244 0.338942 12.9459 0.64951 11.8367 1.28781C11.2226 1.08644 10.2371 0.802578 9.09898 0.621442C6.42218 0.195306 4.26476 0.527351 2.68671 1.60837C0.775849 2.91724 -0.109971 5.19133 0.0538573 8.36747C0.105889 9.37587 0.687607 12.4441 1.60354 15.3538C2.12995 17.0263 2.69128 18.4152 3.27194 19.4822C4.09542 20.9953 4.97655 21.8863 5.96573 22.2063C6.52015 22.3854 7.52749 22.5109 8.58698 21.6552C8.72128 21.8129 8.90046 21.9696 9.13823 22.1152C9.44022 22.2999 9.80948 22.4508 10.1783 22.5402C11.5073 22.8624 12.7522 22.7818 13.8142 22.3302C13.8208 22.5134 13.8258 22.6884 13.8301 22.8395C13.8371 23.0846 13.8441 23.325 13.8534 23.5497C13.9163 25.0695 14.023 26.2512 14.3389 27.078C14.3562 27.1235 14.3796 27.1928 14.4042 27.2663C14.5618 27.7343 14.8253 28.5177 15.4959 29.1312C16.1902 29.7668 17.0301 29.9617 17.7993 29.9617C18.1851 29.9617 18.5532 29.9126 18.876 29.8455C20.0268 29.6063 21.3338 29.242 22.2793 27.9366C23.1732 26.7025 23.6077 24.8437 23.6864 21.915C23.6965 21.8321 23.706 21.753 23.715 21.6777L23.7337 21.5229L23.9443 21.5409L23.9985 21.5444C25.1707 21.5962 26.6039 21.3552 27.4841 20.9587C28.1796 20.6458 30.4083 19.5047 29.8836 17.9643Z" fill="black"/>
<path d="M27.8797 18.2639C24.3946 18.9611 24.1549 17.8169 24.1549 17.8169C27.8346 12.5222 29.373 5.8014 28.0456 4.15651C24.424 -0.330419 18.1551 1.79163 18.0504 1.84663L18.0168 1.85254C17.3282 1.7139 16.5577 1.6314 15.6915 1.61765C14.1147 1.59265 12.9184 2.01856 12.0107 2.68606C12.0107 2.68606 0.827484 -1.78144 1.34768 8.3047C1.4583 10.4504 4.51924 24.5403 8.1701 20.2845C9.50451 18.7282 10.7939 17.4124 10.7939 17.4124C11.4342 17.8249 12.2009 18.0354 13.0046 17.9598L13.067 17.9084C13.0476 18.1016 13.0565 18.2906 13.092 18.5144C12.1514 19.5333 12.4279 19.7122 10.5477 20.0875C8.64518 20.4678 9.7628 21.1446 10.4925 21.3216C11.3772 21.5361 13.4237 21.8399 14.8065 19.9628L14.7515 20.177C15.1199 20.4632 15.3787 22.0387 15.3353 23.467C15.2919 24.8951 15.263 25.8757 15.5533 26.6416C15.8438 27.4075 16.1331 29.1308 18.6048 28.6173C20.67 28.1881 21.7403 27.0759 21.8892 25.2207C21.9948 23.9019 22.234 24.0969 22.249 22.9177L22.4408 22.3595C22.662 20.5716 22.476 19.9948 23.7483 20.2631L24.0577 20.2895C24.994 20.3307 26.2198 20.1433 26.9392 19.8191C28.4882 19.1221 29.4069 17.9581 27.8795 18.2639H27.8797Z" fill="#336791"/>
<path d="M12.6651 9.26419C12.351 9.2218 12.0666 9.26101 11.9227 9.36669C11.8418 9.42612 11.8167 9.49499 11.81 9.54237C11.7919 9.66794 11.8826 9.8068 11.9384 9.8784C12.0961 10.0811 12.3265 10.2204 12.5546 10.2511C12.5876 10.2556 12.6205 10.2578 12.6532 10.2577C13.0335 10.2577 13.3793 9.97055 13.4098 9.75862C13.4479 9.49317 13.0505 9.31612 12.6651 9.26419ZM23.0694 9.2726C23.0394 9.06453 22.6576 9.00521 22.2953 9.05408C21.9334 9.10294 21.5826 9.26135 21.6119 9.46987C21.6353 9.63203 21.9373 9.90885 22.2947 9.90885C22.325 9.90885 22.3554 9.9068 22.3861 9.90271C22.6247 9.87067 22.7998 9.72374 22.883 9.63908C23.0096 9.50999 23.0829 9.36612 23.0694 9.2726Z" fill="white"/>
<path d="M29.0394 18.1846C28.9065 17.795 28.4788 17.6696 27.7682 17.8119C25.6582 18.2342 24.9026 17.9417 24.6545 17.7645C26.2945 15.3418 27.6437 12.4132 28.3716 9.68078C28.7163 8.38646 28.9068 7.18442 28.9223 6.20464C28.9396 5.1293 28.7507 4.33908 28.3611 3.85635C26.7906 1.91033 24.4855 0.866462 21.6953 0.837826C19.777 0.816917 18.1563 1.29294 17.8421 1.4268C17.1805 1.26726 16.4592 1.1693 15.6739 1.1568C14.2339 1.13419 12.9892 1.46851 11.9586 2.14999C11.511 1.98839 10.3541 1.60328 8.93929 1.38226C6.49336 1.00044 4.54969 1.28976 3.16265 2.2426C1.50761 3.37964 0.743552 5.41214 0.89156 8.28351C0.941365 9.24953 1.50902 12.2213 2.4048 15.0674C3.58394 18.8133 4.86574 20.9338 6.21433 21.3701C6.37219 21.4211 6.55418 21.4568 6.75492 21.4568C7.24687 21.4568 7.85004 21.2418 8.47758 20.5102C9.243 19.6198 10.0348 18.7511 10.8519 17.905C11.3821 18.1809 11.9645 18.335 12.5602 18.3504C12.5614 18.3656 12.5628 18.3807 12.5643 18.3957C12.4617 18.5142 12.3613 18.6345 12.2631 18.7565C11.8503 19.2645 11.7645 19.3703 10.4359 19.6356C10.058 19.7112 9.05426 19.9118 9.03949 20.5941C9.02355 21.3395 10.226 21.6526 10.363 21.6858C10.8404 21.8017 11.3004 21.8588 11.739 21.8588C12.8058 21.8588 13.7446 21.5188 14.4948 20.861C14.4717 23.5185 14.586 26.1371 14.915 26.935C15.1846 27.5882 15.8429 29.1844 17.9225 29.1843C18.2277 29.1843 18.5636 29.1499 18.933 29.0731C21.1035 28.6219 22.046 27.6917 22.4106 25.6409C22.6057 24.5449 22.9405 21.9277 23.098 20.5238C23.4303 20.6244 23.8582 20.6704 24.3207 20.6703C25.2854 20.6703 26.3986 20.4716 27.0967 20.1574C27.8809 19.8042 29.2961 18.9376 29.0394 18.1846ZM23.8707 8.69828C23.8636 9.11271 23.8048 9.48896 23.7424 9.88169C23.6753 10.3041 23.6059 10.7408 23.5884 11.2709C23.5712 11.7868 23.6377 12.3232 23.7019 12.8419C23.8317 13.8896 23.965 14.9683 23.4492 16.0326C23.3637 15.8853 23.2874 15.7332 23.2207 15.577C23.1566 15.4263 23.0174 15.1843 22.8246 14.8493C22.0747 13.5452 20.3187 10.4913 21.2176 9.24521C21.4854 8.8743 22.165 8.49294 23.8707 8.69828ZM21.8031 1.67703C24.3032 1.73055 26.2808 2.63749 27.681 4.37249C28.7549 5.70328 27.5723 11.7586 24.1489 16.9826C24.1145 16.9401 24.0799 16.8978 24.0451 16.8557L24.0018 16.8032C24.8864 15.3865 24.7134 13.9848 24.5595 12.742C24.4962 12.232 24.4364 11.7503 24.4516 11.2978C24.4673 10.8183 24.5327 10.4069 24.596 10.0092C24.6737 9.51908 24.7528 9.01192 24.731 8.41408C24.7473 8.35135 24.7539 8.27726 24.7453 8.1893C24.6896 7.61601 24.0146 5.90021 22.6389 4.34726C21.8863 3.49783 20.7888 2.54726 19.2903 1.90612C19.9349 1.77658 20.8162 1.65578 21.8031 1.67703ZM7.81347 19.9748C7.12207 20.7809 6.64465 20.6263 6.48762 20.5757C5.46457 20.2448 4.27746 18.1479 3.23086 14.8229C2.32523 11.9459 1.79601 9.05283 1.75406 8.24158C1.62187 5.67589 2.26324 3.88783 3.66047 2.92692C5.93437 1.36328 9.67289 2.29919 11.1751 2.77385C11.1536 2.79453 11.1311 2.81385 11.1097 2.83487C8.64457 5.24896 8.70304 9.37351 8.70914 9.62567C8.7089 9.72294 8.71734 9.86067 8.72883 10.0501C8.77125 10.7438 8.85023 12.035 8.63929 13.4971C8.44336 14.8559 8.87531 16.1858 9.82418 17.1459C9.92152 17.2443 10.0239 17.3379 10.1309 17.4263C9.70851 17.865 8.79058 18.835 7.81347 19.9748ZM10.4477 16.5665C9.68297 15.7926 9.33562 14.7162 9.49465 13.6131C9.7173 12.0685 9.63515 10.7233 9.59097 10.0006C9.58476 9.89942 9.57926 9.81078 9.57609 9.74089C9.93621 9.43123 11.6051 8.56419 12.7952 8.82862C13.3383 8.94919 13.6692 9.30783 13.8068 9.92464C14.5188 13.1182 13.901 14.4492 13.4046 15.5188C13.3023 15.7392 13.2056 15.9475 13.1231 16.1629L13.0591 16.3295C12.8972 16.7507 12.7465 17.1423 12.6531 17.5141C11.84 17.5118 11.0491 17.175 10.4477 16.5663M10.5725 20.8732C10.3351 20.8157 10.1216 20.7158 9.99633 20.6329C10.101 20.5852 10.2872 20.5202 10.6102 20.4557C12.1731 20.1437 12.4145 19.9235 12.9416 19.2745C13.0624 19.1257 13.1994 18.957 13.3891 18.7516L13.3894 18.7513C13.6719 18.4445 13.8012 18.4966 14.0355 18.5909C14.2255 18.667 14.4105 18.8979 14.4855 19.152C14.5211 19.272 14.5609 19.4998 14.4305 19.677C13.3294 21.172 11.7248 21.1528 10.5725 20.8732ZM18.7521 28.2541C16.8401 28.6513 16.1631 27.7053 15.717 26.6238C15.429 25.9257 15.2875 22.7773 15.3879 19.3003C15.3892 19.2541 15.3824 19.2094 15.3693 19.1674C15.3575 19.0843 15.3397 19.0022 15.3158 18.9217C15.1665 18.4158 14.8027 17.9926 14.3661 17.8171C14.1927 17.7475 13.8744 17.6196 13.4919 17.7145C13.5735 17.3886 13.7149 17.0206 13.8683 16.622L13.9327 16.4544C14.0051 16.2654 14.096 16.0696 14.1921 15.8624C14.7116 14.7433 15.423 13.2104 14.6509 9.7476C14.3617 8.45055 13.3958 7.81714 11.9317 7.9643C11.0539 8.05237 10.2509 8.39578 9.85031 8.59271C9.76418 8.63498 9.68543 8.67589 9.61183 8.71567C9.72363 7.40885 10.146 4.96658 11.7259 3.42135C12.7207 2.44862 14.0455 1.96817 15.6596 1.99408C18.8401 2.04453 20.8796 3.62726 22.0307 4.94624C23.0225 6.08271 23.5596 7.2276 23.7739 7.8451C22.162 7.68612 21.0657 7.99464 20.51 8.7651C19.301 10.441 21.1714 13.6937 22.0704 15.257C22.2353 15.5435 22.3775 15.7911 22.4223 15.8963C22.715 16.5843 23.094 17.0436 23.3707 17.3788C23.4555 17.4816 23.5378 17.5812 23.6004 17.6683C23.1122 17.8048 22.2353 18.1201 22.3152 19.6963C22.2507 20.4873 21.7924 24.1902 21.5596 25.4985C21.2522 27.2269 20.5963 27.8706 18.7521 28.2541ZM26.733 19.3978C26.2338 19.6225 25.3984 19.791 24.6048 19.8273C23.7282 19.867 23.282 19.732 23.177 19.649C23.1278 18.6667 23.5048 18.5641 23.9038 18.4554C23.9665 18.4384 24.0277 18.4217 24.0867 18.4017C24.1234 18.4307 24.1637 18.4593 24.2077 18.4876C24.9122 18.9385 26.1688 18.9871 27.9429 18.632L27.9623 18.6283C27.723 18.8452 27.3136 19.1363 26.733 19.3978Z" fill="white"/>
</g>
<defs>
<clipPath id="clip0_113_99">
<rect width="30" height="30" fill="white"/>
</clipPath>
</defs>
</svg>
