<svg width="30" height="30" viewBox="0 0 30 30" fill="none" xmlns="http://www.w3.org/2000/svg">
<g clip-path="url(#clip0_113_165)">
<path d="M28.012 11.9972H18.5841C18.472 11.9972 18.361 11.9751 18.2575 11.9322C18.1539 11.8893 18.0599 11.8264 17.9807 11.7472C17.9014 11.6679 17.8386 11.5738 17.7957 11.4702C17.7529 11.3667 17.7309 11.2557 17.7309 11.1436V1.3172C17.7314 1.14403 17.6976 0.972483 17.6316 0.812419C17.5655 0.652355 17.4684 0.506934 17.3459 0.38452C17.2235 0.262106 17.078 0.165115 16.9179 0.0991264C16.7578 0.0331374 16.5862 -0.000547495 16.4131 9.23493e-06H13.0456C12.8723 -0.000640248 12.7007 0.0329745 12.5405 0.098919C12.3803 0.164864 12.2347 0.261836 12.1121 0.384256C11.9896 0.506676 11.8924 0.652127 11.8263 0.812239C11.7601 0.97235 11.7263 1.14396 11.7267 1.3172V11.078C11.7271 11.1988 11.7036 11.3185 11.6576 11.4302C11.6115 11.5419 11.5439 11.6434 11.4585 11.7289C11.3732 11.8144 11.2717 11.8821 11.1601 11.9283C11.0484 11.9745 10.9288 11.9981 10.808 11.9979L7.71704 12.0089C7.20704 12.0089 6.7861 11.5988 6.79688 11.0888L6.81891 1.31837C6.8195 1.14505 6.78579 0.973336 6.71973 0.813105C6.65367 0.652873 6.55656 0.507294 6.434 0.384752C6.31144 0.262211 6.16584 0.165129 6.0056 0.0990973C5.84536 0.0330658 5.67363 -0.000610084 5.50032 9.23493e-06H2.13305C1.95977 -0.000485589 1.7881 0.0332753 1.62792 0.0993509C1.46773 0.165427 1.32218 0.262514 1.19964 0.38503C1.07711 0.507547 0.979993 0.653076 0.913889 0.813252C0.847785 0.973427 0.813994 1.14509 0.814458 1.31837V28.8258C0.814458 29.4673 1.33477 30 1.98868 30H28.012C28.3233 29.9996 28.6218 29.8758 28.8418 29.6556C29.0619 29.4354 29.1856 29.1369 29.1858 28.8256V13.1707C29.1868 13.0163 29.1571 12.8632 29.0985 12.7204C29.0398 12.5776 28.9534 12.4478 28.8442 12.3386C28.735 12.2294 28.6052 12.143 28.4624 12.0844C28.3195 12.0258 28.1664 11.9962 28.012 11.9972ZM23.5924 22.3224C23.5911 22.7275 23.4296 23.1157 23.1431 23.4022C22.8565 23.6887 22.4683 23.8502 22.0631 23.8514H19.4044C18.9993 23.8501 18.6112 23.6885 18.3248 23.402C18.0383 23.1156 17.8769 22.7274 17.8756 22.3224V19.6641C17.8769 19.259 18.0383 18.8708 18.3248 18.5844C18.6112 18.2979 18.9993 18.1364 19.4044 18.135H22.0629C22.468 18.1362 22.8562 18.2977 23.1427 18.5841C23.4293 18.8706 23.5908 19.2587 23.5922 19.6638L23.5924 22.3224Z" fill="#FF6600"/>
</g>
<defs>
<clipPath id="clip0_113_165">
<rect width="30" height="30" fill="white"/>
</clipPath>
</defs>
</svg>
