<svg width="30" height="27" viewBox="0 0 30 27" fill="none" xmlns="http://www.w3.org/2000/svg">
<path d="M14.9137 15.9857C16.3892 15.9642 17.5669 14.7506 17.5441 13.2752C17.5213 11.7997 16.3067 10.6211 14.8313 10.6426C13.3558 10.6642 12.1781 11.8777 12.2009 13.3532C12.2237 14.8286 13.4383 16.0073 14.9137 15.9857Z" fill="#61DAFB"/>
<path d="M24.9519 8.76031C24.4334 8.58035 23.8915 8.40075 23.3266 8.24491C23.4585 7.68043 23.567 7.11628 23.6524 6.57592C24.0968 3.47535 23.5241 1.30379 22.0113 0.482039C21.562 0.230758 21.0681 0.120769 20.5056 0.12898C18.8652 0.152928 16.7983 1.40198 14.7206 3.47159C12.58 1.46356 10.4754 0.275407 8.83499 0.299356C8.27255 0.307567 7.78223 0.431925 7.34094 0.696207C5.85449 1.58519 5.34913 3.77248 5.88866 6.83524C5.99073 7.37287 6.11658 7.9336 6.26588 8.49398C5.70597 8.66623 5.1695 8.83814 4.65718 9.05658C1.74518 10.2242 0.175474 11.7942 0.202248 13.5283C0.229021 15.2625 1.86992 16.7856 4.79322 17.868C5.31169 18.048 5.85359 18.2276 6.41856 18.3834C6.28663 18.9479 6.17814 19.5121 6.09272 20.0524C5.64834 23.153 6.221 25.3245 7.73386 26.1463C8.18311 26.3976 8.67705 26.5076 9.23949 26.4994C10.9034 26.4751 12.9703 25.226 15.0245 23.1567C17.1651 25.1648 19.2697 26.3529 20.9101 26.329C21.4726 26.3208 21.9629 26.1964 22.4042 25.9321C23.8906 25.0432 24.396 22.8559 23.8565 19.7931C23.7544 19.2555 23.6285 18.6947 23.4792 18.1344C24.0391 17.9621 24.5756 17.7902 25.0879 17.5718C27.9999 16.4041 29.5696 14.8342 29.5429 13.1C29.5161 11.3658 27.8986 9.84241 24.9519 8.76031ZM21.3732 1.66335C22.3427 2.21176 22.6975 3.94114 22.3371 6.4076C22.2744 6.90075 22.1652 7.41803 22.0329 7.95908C20.81 7.69565 19.5181 7.52699 18.1571 7.42966C17.343 6.31643 16.5072 5.32071 15.6728 4.41873C17.3806 2.68268 19.1201 1.48529 20.5497 1.46442C20.8543 1.45997 21.1366 1.52617 21.3732 1.66335ZM18.963 15.5985C18.5527 16.3545 18.0722 17.1116 17.5682 17.8691C16.7022 17.952 15.8354 17.9881 14.9449 18.0011C14.031 18.0145 13.1635 18.0037 12.3188 17.9457C11.7916 17.2033 11.3113 16.4602 10.8779 15.7165C10.4207 14.9496 9.98658 14.159 9.59968 13.3911C9.9627 12.6123 10.3722 11.8094 10.8056 11.0295C11.2158 10.2735 11.6964 9.51638 12.2004 8.75894C13.0664 8.67598 13.9331 8.63989 14.8236 8.62689C15.7376 8.61354 16.6051 8.62432 17.4498 8.68231C17.9769 9.42469 18.4572 10.1678 18.8906 10.9115C19.3478 11.6784 19.782 12.469 20.1689 13.2368C19.7824 14.016 19.396 14.7952 18.963 15.5985ZM20.8962 14.7967C21.2603 15.6118 21.5539 16.4045 21.824 17.1975C21.0301 17.3966 20.1886 17.5495 19.2998 17.6797C19.5742 17.2303 19.8716 16.7572 20.1218 16.2613C20.3954 15.7651 20.6456 15.2692 20.8962 14.7967ZM14.9948 21.2351C14.423 20.634 13.8739 19.9857 13.3478 19.3136C13.8872 19.3292 14.4265 19.3448 14.9655 19.3369C15.5045 19.329 16.0432 19.2977 16.5818 19.2664C16.0768 19.9535 15.5479 20.6176 14.9948 21.2351ZM10.5817 17.7835C9.68933 17.6794 8.8435 17.5511 8.04381 17.3752C8.28966 16.5981 8.55822 15.7738 8.89708 14.9484C9.1621 15.4134 9.42748 15.9017 9.71594 16.3663C10.0051 16.8778 10.2932 17.3189 10.5817 17.7835ZM8.84896 11.8316C8.48477 11.0165 8.19125 10.2239 7.92116 9.43085C8.71506 9.23174 9.55655 9.07882 10.4453 8.94864C10.1709 9.39801 9.8735 9.87115 9.62331 10.367C9.34969 10.8633 9.09951 11.3592 8.84896 11.8316ZM14.7503 5.39324C15.3221 5.99433 15.8713 6.64263 16.3973 7.31471C15.8579 7.29915 15.3186 7.28358 14.7796 7.29145C14.2406 7.29932 13.7019 7.33062 13.1633 7.36193C13.6684 6.67479 14.1972 6.01075 14.7503 5.39324ZM20.0288 10.2386L19.1634 8.84481C20.0558 8.94898 20.9016 9.07727 21.7013 9.25312C21.4555 10.0302 21.1869 10.8545 20.848 11.6799C20.5827 11.1915 20.3173 10.7032 20.0288 10.2386ZM7.19813 6.62861C6.76175 4.17378 7.06306 2.43482 8.01521 1.85836C8.24739 1.71433 8.52753 1.63992 8.83218 1.63548C10.2383 1.61495 12.0136 2.73759 13.798 4.4461C12.9916 5.34859 12.1873 6.39169 11.4078 7.52819C10.0504 7.66521 8.76474 7.89494 7.5501 8.17051C7.40117 7.63356 7.29947 7.11937 7.19813 6.62861ZM1.51461 13.5092C1.4976 12.4077 2.81531 11.2165 5.14542 10.3152C5.61123 10.1209 6.12426 9.94932 6.63766 9.80119C7.03071 10.9675 7.51859 12.2026 8.1002 13.4365C7.55694 14.6867 7.08362 15.9125 6.75018 17.0894C3.50168 16.1992 1.53487 14.8215 1.51461 13.5092ZM8.37195 24.965C7.40243 24.4166 7.04757 22.6872 7.40798 20.2207C7.47068 19.7276 7.5799 19.2103 7.71219 18.6693C8.93515 18.9327 10.227 19.1013 11.588 19.1987C12.4022 20.3119 13.2379 21.3076 14.0723 22.2096C12.3645 23.9457 10.625 25.1431 9.19543 25.1639C8.89078 25.1684 8.60847 25.1022 8.37195 24.965ZM22.547 19.9997C22.9834 22.4546 22.6821 24.1935 21.7299 24.77C21.4977 24.914 21.2176 24.9884 20.9129 24.9929C19.5068 25.0134 17.7315 23.8907 15.9471 22.1822C16.7536 21.2797 17.5579 20.2366 18.3373 19.1001C19.6947 18.9631 20.9804 18.7334 22.195 18.4578C22.3439 18.9948 22.4456 19.509 22.547 19.9997ZM24.5997 16.3131C24.1339 16.5074 23.6209 16.679 23.1075 16.8271C22.7144 15.6609 22.2265 14.4257 21.6449 13.1919C22.1882 11.9416 22.6615 10.7158 22.9949 9.53896C26.2434 10.4291 28.2102 11.8068 28.2305 13.1192C28.2475 14.2206 26.9064 15.4122 24.5997 16.3131Z" fill="#61DAFB"/>
</svg>
