<svg width="30" height="30" viewBox="0 0 30 30" fill="none" xmlns="http://www.w3.org/2000/svg">
<g clip-path="url(#clip0_113_63)">
<path d="M28.5469 21.8203C26.9766 22.6406 18.8438 25.9687 17.1094 26.8828C15.375 27.7969 14.4141 27.7734 13.0547 27.1172C11.6953 26.4609 3.04688 22.9922 1.47656 22.2422C0.703125 21.8672 0.304688 21.5625 0.304688 21.2578V18.2812C0.304688 18.2812 11.5547 15.8203 13.3828 15.1875C15.2109 14.5312 15.8203 14.5078 17.3672 15.0703C18.9141 15.6328 28.1719 17.2969 29.6953 17.8594V20.7891C29.6953 21.0937 29.3438 21.4219 28.5469 21.8203Z" fill="#A41E11"/>
<path d="M28.5468 18.8672C26.9765 19.6875 18.8437 23.0156 17.1093 23.9297C15.3749 24.8437 14.414 24.8203 13.0546 24.1641C11.6952 23.5078 3.04681 20.0156 1.47649 19.2656C-0.0703814 18.5156 -0.117256 18 1.40618 17.4141C2.92962 16.8047 11.5312 13.4297 13.3593 12.7969C15.1874 12.1406 15.7968 12.1172 17.3437 12.6797C18.8906 13.2422 26.9765 16.4531 28.4999 17.0156C30.0702 17.5781 30.1171 18.0469 28.5468 18.8672Z" fill="#D82C20"/>
<path d="M28.5469 16.9922C26.9766 17.8125 18.8438 21.1406 17.1094 22.0547C15.375 22.9453 14.4141 22.9453 13.0547 22.2891C11.6953 21.6328 3.04688 18.1406 1.47656 17.3906C0.703125 17.0156 0.304688 16.7109 0.304688 16.4062V13.4297C0.304688 13.4297 11.5547 10.9687 13.3828 10.3359C15.2109 9.67968 15.8203 9.65625 17.3672 10.2187C18.9141 10.7812 28.1719 12.4453 29.6953 13.0078V15.9375C29.6953 16.2422 29.3438 16.5703 28.5469 16.9922Z" fill="#A41E11"/>
<path d="M28.5467 14.0156C26.9763 14.8359 18.8435 18.1641 17.1092 19.0781C15.3748 19.9687 14.4138 19.9687 13.0545 19.3125C11.6951 18.6562 3.04665 15.1641 1.47634 14.4141C-0.0939719 13.6641 -0.117409 13.1484 1.40603 12.5625C2.92947 11.9531 11.531 8.57812 13.3592 7.94531C15.1873 7.28906 15.7967 7.26562 17.3435 7.82812C18.8904 8.39062 26.9763 11.6016 28.4998 12.1641C30.0701 12.7266 30.117 13.1953 28.5467 14.0156Z" fill="#D82C20"/>
<path d="M28.5469 11.9531C26.9766 12.7734 18.8438 16.1016 17.1094 17.0156C15.375 17.9062 14.4141 17.9062 13.0547 17.25C11.6953 16.6172 3.04687 13.125 1.47656 12.375C0.703125 12 0.28125 11.6953 0.28125 11.3906V8.41406C0.28125 8.41406 11.5312 5.95312 13.3594 5.32031C15.1875 4.66406 15.7969 4.64062 17.3438 5.20312C18.8906 5.76562 28.1484 7.42968 29.6719 7.99218V10.9219C29.6953 11.2266 29.3438 11.5312 28.5469 11.9531Z" fill="#A41E11"/>
<path d="M28.5467 8.97656C26.9763 9.79687 18.8435 13.125 17.1092 14.0391C15.3748 14.9297 14.4138 14.9297 13.0545 14.2734C11.6951 13.6172 3.04665 10.1484 1.47634 9.39843C-0.0939719 8.64843 -0.117409 8.13281 1.40603 7.54687C2.92947 6.9375 11.531 3.5625 13.3592 2.92968C15.1873 2.27343 15.7967 2.25 17.3435 2.8125C18.8904 3.375 26.9763 6.58593 28.4998 7.14843C30.0701 7.71093 30.117 8.17968 28.5467 8.97656Z" fill="#D82C20"/>
<path d="M18.8438 6.11719L16.3125 6.39844L15.7266 7.75781L14.8125 6.23438L11.8828 5.97656L14.0625 5.17969L13.4062 3.96094L15.4688 4.75781L17.3906 4.125L16.875 5.39062L18.8438 6.11719ZM15.5859 12.7734L10.8281 10.8047L17.6484 9.77344L15.5859 12.7734Z" fill="white"/>
<path d="M9 9.70313C11.0063 9.70313 12.6328 9.07353 12.6328 8.29688C12.6328 7.52022 11.0063 6.89062 9 6.89062C6.99365 6.89062 5.36719 7.52022 5.36719 8.29688C5.36719 9.07353 6.99365 9.70313 9 9.70313Z" fill="white"/>
<path d="M21.8672 6.49219L25.8984 8.08594L21.8672 9.67969V6.49219Z" fill="#7A0C00"/>
<path d="M17.4141 8.27344L21.8672 6.49219V9.67969L21.4219 9.86719L17.4141 8.27344Z" fill="#AD2115"/>
</g>
<defs>
<clipPath id="clip0_113_63">
<rect width="30" height="30" fill="white"/>
</clipPath>
</defs>
</svg>
