<svg width="30" height="30" viewBox="0 0 30 30" fill="none" xmlns="http://www.w3.org/2000/svg">
<g clip-path="url(#clip0_269_423)">
<path d="M22.9688 0H7.03125C3.148 0 0 3.148 0 7.03125V22.9688C0 26.852 3.148 30 7.03125 30H22.9688C26.852 30 30 26.852 30 22.9688V7.03125C30 3.148 26.852 0 22.9688 0Z" fill="#007ACC"/>
<path d="M6.634 15.0995L6.62451 16.3281H10.5292V27.4233H13.2912V16.3281H17.1959V15.1233C17.1959 14.4566 17.1817 13.8995 17.1626 13.8852C17.1483 13.8662 14.7721 13.8566 11.8912 13.8614L6.6483 13.8757L6.634 15.0995ZM24.207 13.8408C24.9688 14.0313 25.5498 14.3694 26.0831 14.9217C26.3594 15.217 26.7688 15.7551 26.8022 15.8837C26.8117 15.9218 25.5069 16.798 24.7165 17.2884C24.6879 17.3075 24.5735 17.1836 24.445 16.9932C24.0593 16.4313 23.6546 16.1884 23.0354 16.1456C22.126 16.0836 21.5403 16.5599 21.5451 17.3551C21.5451 17.5884 21.5783 17.7265 21.6736 17.917C21.8735 18.3313 22.245 18.5789 23.4117 19.0836C25.5593 20.0075 26.4783 20.617 27.0498 21.4836C27.6879 22.4503 27.8308 23.9932 27.3974 25.1408C26.9213 26.3884 25.7403 27.236 24.0783 27.517C23.5641 27.6075 22.345 27.5932 21.7927 27.4932C20.5879 27.2789 19.4451 26.6837 18.7403 25.9027C18.4641 25.5979 17.926 24.8027 17.9594 24.7455C17.9735 24.7265 18.0974 24.6504 18.2354 24.5694C18.3688 24.4932 18.8737 24.2027 19.3498 23.9265L20.2117 23.4265L20.3926 23.6932C20.6451 24.0788 21.1974 24.6075 21.5308 24.7836C22.4878 25.2884 23.8022 25.217 24.4498 24.6361C24.726 24.3836 24.8403 24.1217 24.8403 23.7361C24.8403 23.3884 24.7974 23.236 24.6164 22.9741C24.3831 22.6408 23.907 22.3598 22.5545 21.7741C21.0069 21.1074 20.3403 20.6932 19.7308 20.036C19.3784 19.6551 19.045 19.0455 18.9069 18.536C18.7927 18.1122 18.7641 17.0503 18.8546 16.6217C19.1735 15.1265 20.3022 14.0837 21.9307 13.7741C22.4594 13.6741 23.6878 13.7122 24.207 13.8408Z" fill="white"/>
</g>
<defs>
<clipPath id="clip0_269_423">
<rect width="30" height="30" fill="white"/>
</clipPath>
</defs>
</svg>
