<svg width="60" height="60" viewBox="0 0 60 60" fill="none" xmlns="http://www.w3.org/2000/svg">
<rect width="60" height="60" rx="10" fill="#E7F0FE"/>
<path d="M26.4401 20.9679C26.2956 20.8196 26.1236 20.702 25.9342 20.6217C25.7447 20.5413 25.5416 20.5 25.3363 20.5C25.1311 20.5 24.9279 20.5413 24.7385 20.6217C24.5491 20.702 24.3771 20.8196 24.2326 20.9679L16.4598 28.8769C16.3141 29.024 16.1985 29.1989 16.1196 29.3917C16.0406 29.5844 16 29.7912 16 30C16 30.2088 16.0406 30.4156 16.1196 30.6083C16.1985 30.8011 16.3141 30.976 16.4598 31.1231L24.2326 39.0321C24.3771 39.1804 24.5491 39.298 24.7385 39.3783C24.9279 39.4587 25.1311 39.5 25.3363 39.5C25.5416 39.5 25.7447 39.4587 25.9342 39.3783C26.1236 39.298 26.2956 39.1804 26.4401 39.0321C26.5858 38.8851 26.7014 38.7101 26.7803 38.5173C26.8593 38.3246 26.8999 38.1178 26.8999 37.909C26.8999 37.7002 26.8593 37.4935 26.7803 37.3007C26.7014 37.1079 26.5858 36.933 26.4401 36.7859L19.7555 30L26.4401 23.2141C26.5858 23.067 26.7014 22.8921 26.7803 22.6993C26.8593 22.5065 26.8999 22.2998 26.8999 22.091C26.8999 21.8822 26.8593 21.6754 26.7803 21.4827C26.7014 21.2899 26.5858 21.1149 26.4401 20.9679ZM43.5402 28.8769L35.7674 20.9679C35.6224 20.8204 35.4504 20.7034 35.261 20.6236C35.0716 20.5438 34.8686 20.5027 34.6637 20.5027C34.2497 20.5027 33.8527 20.67 33.5599 20.9679C33.415 21.1154 33.3 21.2905 33.2216 21.4832C33.1431 21.6759 33.1027 21.8824 33.1027 22.091C33.1027 22.5122 33.2672 22.9162 33.5599 23.2141L40.2445 30L33.5599 36.7859C33.4142 36.933 33.2986 37.1079 33.2197 37.3007C33.1407 37.4935 33.1001 37.7002 33.1001 37.909C33.1001 38.1178 33.1407 38.3246 33.2197 38.5173C33.2986 38.7101 33.4142 38.8851 33.5599 39.0321C33.7044 39.1804 33.8764 39.298 34.0658 39.3783C34.2553 39.4587 34.4584 39.5 34.6637 39.5C34.8689 39.5 35.0721 39.4587 35.2615 39.3783C35.4509 39.298 35.6229 39.1804 35.7674 39.0321L43.5402 31.1231C43.6859 30.976 43.8015 30.8011 43.8804 30.6083C43.9594 30.4156 44 30.2088 44 30C44 29.7912 43.9594 29.5844 43.8804 29.3917C43.8015 29.1989 43.6859 29.024 43.5402 28.8769Z" fill="#0056B3"/>
</svg>
