<svg width="60" height="60" viewBox="0 0 60 60" fill="none" xmlns="http://www.w3.org/2000/svg">
<rect width="60" height="60" rx="10" fill="#FFE7CD"/>
<path d="M22.3961 42.5964C22.1466 42.34 22.0219 42.0136 22.0219 41.6173C22.0219 41.221 22.1466 40.8947 22.3961 40.6382L28.8943 33.9244C29.416 33.3882 30.0624 33.1201 30.8335 33.1201C31.6047 33.1201 32.2511 33.3882 32.7728 33.9244L35.5966 36.8267L41.6865 30.5675C41.9587 30.2878 42.2762 30.1479 42.6391 30.1479C43.002 30.1479 43.3196 30.2878 43.5917 30.5675C43.8639 30.8472 44 31.1797 44 31.5648C44 31.9499 43.8639 32.2819 43.5917 32.5607L37.5358 38.8199C37.0142 39.3561 36.3737 39.6242 35.6143 39.6242C34.8549 39.6242 34.2139 39.3561 33.6914 38.8199L30.8335 35.8826L24.3013 42.5964C24.0518 42.8528 23.7402 42.9871 23.3664 42.9992C22.9926 43.0114 22.6692 42.8771 22.3961 42.5964ZM18.7217 42.1768C17.9733 42.1768 17.3328 41.9031 16.8002 41.3558C16.2676 40.8084 16.0009 40.1496 16 39.3794V19.7974C16 19.0281 16.2667 18.3698 16.8002 17.8224C17.3337 17.2751 17.9742 17.0009 18.7217 17H37.774C38.5225 17 39.1635 17.2741 39.6969 17.8224C40.2304 18.3707 40.4967 19.0291 40.4957 19.7974V25.3923C40.4957 25.7886 40.3651 26.121 40.1038 26.3896C39.8425 26.6581 39.5195 26.7919 39.1349 26.791H18.7217V42.1768ZM18.7217 23.9936H37.774V19.7974H18.7217V23.9936Z" fill="#E16500"/>
</svg>
