<svg width="60" height="60" viewBox="0 0 60 60" fill="none" xmlns="http://www.w3.org/2000/svg">
<rect width="60" height="60" rx="10" fill="#DCFFE0"/>
<path d="M43.2936 25.2989L42.0556 24.0608L42.9193 23.1503C43.1508 22.92 43.2666 22.6603 43.2666 22.3711C43.2666 22.0832 43.1508 21.8235 42.9193 21.592L38.4062 17.0807C38.1759 16.8504 37.9168 16.7352 37.6289 16.7352C37.3409 16.7352 37.0812 16.8504 36.8497 17.0807L35.9392 17.9444L34.6561 16.6614L35.6602 15.6123C36.1881 15.0845 36.8353 14.8284 37.6019 14.844C38.3684 14.8595 39.0157 15.1307 39.5435 15.6573L44.3427 20.4583C44.8705 20.9861 45.1345 21.6256 45.1345 22.3765C45.1345 23.1275 44.8705 23.7669 44.3427 24.2948L43.2936 25.2989ZM24.2948 44.3427C23.7669 44.8705 23.1275 45.1345 22.3765 45.1345C21.6256 45.1345 20.9861 44.8705 20.4583 44.3427L15.7977 39.6821C15.2458 39.1302 14.9699 38.444 14.9699 37.6235C14.9699 36.8029 15.2458 36.1173 15.7977 35.5667L16.6614 34.7011L17.9462 35.9859L17.0699 36.8497C16.8396 37.0812 16.7244 37.3409 16.7244 37.6289C16.7244 37.9168 16.8396 38.1765 17.0699 38.408L21.5938 42.9301C21.8241 43.1616 22.0832 43.2774 22.3711 43.2774C22.6591 43.2774 22.9188 43.1616 23.1503 42.9301L24.0141 42.0556L25.2989 43.3386L24.2948 44.3427ZM41.809 32.0991L43.855 30.0531C44.0854 29.8228 44.2005 29.5576 44.2005 29.2577C44.2005 28.9578 44.0854 28.6927 43.855 28.4624L31.5376 16.1468C31.3073 15.9152 31.0422 15.7995 30.7423 15.7995C30.4424 15.7995 30.1772 15.9146 29.9469 16.145L27.9009 18.191C27.6706 18.4213 27.5554 18.681 27.5554 18.9701C27.5554 19.2581 27.6706 19.5178 27.9009 19.7493L40.2525 32.0991C40.4828 32.3294 40.7419 32.4446 41.0299 32.4446C41.3178 32.4446 41.5775 32.3294 41.809 32.0991ZM30.0081 43.9L32.0541 41.8432C32.2844 41.6129 32.3996 41.3538 32.3996 41.0658C32.3996 40.7779 32.2844 40.5182 32.0541 40.2867L19.7133 27.9459C19.483 27.7156 19.2233 27.6004 18.9342 27.6004C18.6462 27.6004 18.3871 27.7156 18.1568 27.9459L16.1 29.9919C15.8697 30.2222 15.7545 30.4874 15.7545 30.7873C15.7545 31.0872 15.8697 31.3523 16.1 31.5826L28.4174 43.8982C28.6477 44.1298 28.9128 44.2455 29.2127 44.2455C29.5126 44.2455 29.7778 44.1304 30.0081 43.9ZM28.7341 34.4114L34.3754 28.7791L31.2191 25.6246L25.5886 31.2659L28.7341 34.4114ZM31.2569 45.1722C30.7063 45.7241 30.0249 46 29.2127 46C28.4006 46 27.7186 45.7241 27.1667 45.1722L14.8278 32.8333C14.2759 32.2814 14 31.5994 14 30.7873C14 29.9751 14.2759 29.2937 14.8278 28.7431L16.872 26.6629C17.4238 26.111 18.11 25.8351 18.9306 25.8351C19.7511 25.8351 20.4367 26.111 20.9873 26.6629L24.3056 29.9811L29.9469 24.3398L26.6287 21.0323C26.0769 20.4805 25.8009 19.7931 25.8009 18.9701C25.8009 18.1472 26.0769 17.4598 26.6287 16.9079L28.7071 14.8278C29.2589 14.2759 29.9445 14 30.7639 14C31.5832 14 32.2694 14.2759 32.8225 14.8278L45.1722 27.1775C45.7241 27.7294 46 28.4156 46 29.2361C46 30.0567 45.7241 30.7423 45.1722 31.2929L43.0939 33.3731C42.542 33.9249 41.854 34.2009 41.0299 34.2009C40.2057 34.2009 39.5183 33.9249 38.9677 33.3731L35.6602 30.0531L30.0189 35.6944L33.3371 39.0127C33.889 39.5645 34.1649 40.2507 34.1649 41.0712C34.1649 41.8918 33.889 42.5774 33.3371 43.128L31.2569 45.1722Z" fill="#009900"/>
</svg>
